<mxfile host="app.diagrams.net" agent="Mozilla/5.0 (X11; Ubuntu; Linux x86_64; rv:137.0) Gecko/20100101 Firefox/137.0" version="27.1.5">
  <diagram name="Page-1" id="YV9h9TjK9BBwD0EoSyPw">
    <mxGraphModel dx="3132" dy="1937" grid="1" gridSize="10" guides="1" tooltips="1" connect="1" arrows="1" fold="1" page="1" pageScale="1" pageWidth="850" pageHeight="1100" math="0" shadow="0">
      <root>
        <mxCell id="0" />
        <mxCell id="1" parent="0" />
        <mxCell id="MC8U4YQa0FiXzc1xEEIF-54" value="" style="rounded=0;whiteSpace=wrap;html=1;fillColor=none;" vertex="1" parent="1">
          <mxGeometry x="-260" y="-380" width="330" height="450" as="geometry" />
        </mxCell>
        <mxCell id="MC8U4YQa0FiXzc1xEEIF-3" style="edgeStyle=none;curved=1;rounded=0;orthogonalLoop=1;jettySize=auto;html=1;entryX=1;entryY=0.5;entryDx=0;entryDy=0;fontSize=16;startSize=8;endSize=8;" edge="1" parent="1">
          <mxGeometry relative="1" as="geometry">
            <mxPoint x="-116" y="58" as="sourcePoint" />
            <mxPoint x="-116" y="58" as="targetPoint" />
          </mxGeometry>
        </mxCell>
        <mxCell id="MC8U4YQa0FiXzc1xEEIF-4" value="4" style="ellipse;whiteSpace=wrap;html=1;fontSize=16;fillColor=#f8cecc;strokeColor=#b85450;" vertex="1" parent="1">
          <mxGeometry x="-68" y="-166" width="60" height="60" as="geometry" />
        </mxCell>
        <mxCell id="MC8U4YQa0FiXzc1xEEIF-5" value="2" style="ellipse;whiteSpace=wrap;html=1;fontSize=16;fillColor=#f8cecc;strokeColor=#b85450;" vertex="1" parent="1">
          <mxGeometry x="-128" y="-71" width="60" height="60" as="geometry" />
        </mxCell>
        <mxCell id="MC8U4YQa0FiXzc1xEEIF-8" value="5" style="ellipse;whiteSpace=wrap;html=1;fontSize=16;fillColor=#f8cecc;strokeColor=#b85450;" vertex="1" parent="1">
          <mxGeometry x="-68" y="-279" width="60" height="60" as="geometry" />
        </mxCell>
        <mxCell id="MC8U4YQa0FiXzc1xEEIF-11" value="3" style="ellipse;whiteSpace=wrap;html=1;fontSize=16;fillColor=#f8cecc;strokeColor=#b85450;" vertex="1" parent="1">
          <mxGeometry x="-8" y="-71" width="60" height="60" as="geometry" />
        </mxCell>
        <mxCell id="MC8U4YQa0FiXzc1xEEIF-13" value="" style="endArrow=classic;html=1;rounded=0;entryX=0.5;entryY=1;entryDx=0;entryDy=0;" edge="1" parent="1" target="MC8U4YQa0FiXzc1xEEIF-5">
          <mxGeometry width="50" height="50" relative="1" as="geometry">
            <mxPoint x="-98" y="40" as="sourcePoint" />
            <mxPoint x="-80" y="40" as="targetPoint" />
          </mxGeometry>
        </mxCell>
        <mxCell id="MC8U4YQa0FiXzc1xEEIF-15" value="" style="endArrow=classic;html=1;rounded=0;entryX=0;entryY=1;entryDx=0;entryDy=0;exitX=0.5;exitY=0;exitDx=0;exitDy=0;" edge="1" parent="1" source="MC8U4YQa0FiXzc1xEEIF-5" target="MC8U4YQa0FiXzc1xEEIF-4">
          <mxGeometry width="50" height="50" relative="1" as="geometry">
            <mxPoint x="-94" y="50" as="sourcePoint" />
            <mxPoint x="-94" y="-1" as="targetPoint" />
          </mxGeometry>
        </mxCell>
        <mxCell id="MC8U4YQa0FiXzc1xEEIF-16" value="" style="endArrow=classic;html=1;rounded=0;entryX=1;entryY=1;entryDx=0;entryDy=0;exitX=0.5;exitY=0;exitDx=0;exitDy=0;" edge="1" parent="1" source="MC8U4YQa0FiXzc1xEEIF-11" target="MC8U4YQa0FiXzc1xEEIF-4">
          <mxGeometry width="50" height="50" relative="1" as="geometry">
            <mxPoint x="-94" y="-61" as="sourcePoint" />
            <mxPoint x="-58" y="-105" as="targetPoint" />
          </mxGeometry>
        </mxCell>
        <mxCell id="MC8U4YQa0FiXzc1xEEIF-18" value="" style="endArrow=classic;html=1;rounded=0;entryX=0.5;entryY=1;entryDx=0;entryDy=0;exitX=0.5;exitY=0;exitDx=0;exitDy=0;" edge="1" parent="1" source="MC8U4YQa0FiXzc1xEEIF-4" target="MC8U4YQa0FiXzc1xEEIF-8">
          <mxGeometry width="50" height="50" relative="1" as="geometry">
            <mxPoint x="-94" y="-61" as="sourcePoint" />
            <mxPoint x="-58" y="-105" as="targetPoint" />
          </mxGeometry>
        </mxCell>
        <mxCell id="MC8U4YQa0FiXzc1xEEIF-19" value="" style="endArrow=classic;html=1;rounded=0;exitX=0.5;exitY=0;exitDx=0;exitDy=0;" edge="1" parent="1" source="MC8U4YQa0FiXzc1xEEIF-8">
          <mxGeometry width="50" height="50" relative="1" as="geometry">
            <mxPoint x="-47.5" y="-279" as="sourcePoint" />
            <mxPoint x="-38" y="-330" as="targetPoint" />
          </mxGeometry>
        </mxCell>
        <mxCell id="MC8U4YQa0FiXzc1xEEIF-20" value="" style="rounded=0;whiteSpace=wrap;html=1;fillColor=none;" vertex="1" parent="1">
          <mxGeometry x="-920" y="-330" width="530" height="350" as="geometry" />
        </mxCell>
        <mxCell id="MC8U4YQa0FiXzc1xEEIF-21" value="" style="endArrow=classic;html=1;rounded=0;entryX=0.5;entryY=1;entryDx=0;entryDy=0;exitX=0.5;exitY=0;exitDx=0;exitDy=0;" edge="1" parent="1" source="MC8U4YQa0FiXzc1xEEIF-24" target="MC8U4YQa0FiXzc1xEEIF-11">
          <mxGeometry width="50" height="50" relative="1" as="geometry">
            <mxPoint x="21.599999999999994" y="40" as="sourcePoint" />
            <mxPoint x="21.599999999999994" y="-11" as="targetPoint" />
          </mxGeometry>
        </mxCell>
        <mxCell id="MC8U4YQa0FiXzc1xEEIF-22" value="Input 2" style="text;html=1;align=center;verticalAlign=middle;whiteSpace=wrap;rounded=0;fontSize=16;" vertex="1" parent="1">
          <mxGeometry x="-128" y="40" width="60" height="30" as="geometry" />
        </mxCell>
        <mxCell id="MC8U4YQa0FiXzc1xEEIF-24" value="Input 3" style="text;html=1;align=center;verticalAlign=middle;whiteSpace=wrap;rounded=0;fontSize=16;" vertex="1" parent="1">
          <mxGeometry x="-8" y="40" width="60" height="30" as="geometry" />
        </mxCell>
        <mxCell id="MC8U4YQa0FiXzc1xEEIF-25" value="Output" style="text;html=1;align=center;verticalAlign=middle;whiteSpace=wrap;rounded=0;fontSize=16;" vertex="1" parent="1">
          <mxGeometry x="-68" y="-370" width="60" height="30" as="geometry" />
        </mxCell>
        <mxCell id="MC8U4YQa0FiXzc1xEEIF-26" value="Genome (Genotype)" style="text;html=1;align=center;verticalAlign=middle;whiteSpace=wrap;rounded=0;fontSize=16;fontStyle=1" vertex="1" parent="1">
          <mxGeometry x="-920" y="-320" width="100" height="30" as="geometry" />
        </mxCell>
        <mxCell id="MC8U4YQa0FiXzc1xEEIF-27" value="" style="shape=table;startSize=0;container=1;collapsible=0;childLayout=tableLayout;strokeWidth=2;swimlaneFillColor=none;" vertex="1" parent="1">
          <mxGeometry x="-900" y="-260" width="400" height="85" as="geometry" />
        </mxCell>
        <mxCell id="MC8U4YQa0FiXzc1xEEIF-28" value="" style="shape=tableRow;horizontal=0;startSize=0;swimlaneHead=0;swimlaneBody=0;strokeColor=inherit;top=0;left=0;bottom=0;right=0;collapsible=0;dropTarget=0;fillColor=none;points=[[0,0.5],[1,0.5]];portConstraint=eastwest;" vertex="1" parent="MC8U4YQa0FiXzc1xEEIF-27">
          <mxGeometry width="400" height="40" as="geometry" />
        </mxCell>
        <mxCell id="MC8U4YQa0FiXzc1xEEIF-29" value="Node Gene" style="shape=partialRectangle;html=1;whiteSpace=wrap;connectable=0;strokeColor=inherit;overflow=hidden;fillColor=#f8cecc;top=0;left=0;bottom=0;right=0;pointerEvents=1;fontSize=16;rowspan=1;colspan=5;" vertex="1" parent="MC8U4YQa0FiXzc1xEEIF-28">
          <mxGeometry width="400" height="40" as="geometry">
            <mxRectangle width="80" height="40" as="alternateBounds" />
          </mxGeometry>
        </mxCell>
        <mxCell id="MC8U4YQa0FiXzc1xEEIF-30" value="" style="shape=partialRectangle;html=1;whiteSpace=wrap;connectable=0;strokeColor=inherit;overflow=hidden;fillColor=none;top=0;left=0;bottom=0;right=0;pointerEvents=1;" vertex="1" visible="0" parent="MC8U4YQa0FiXzc1xEEIF-28">
          <mxGeometry x="80" width="80" height="40" as="geometry">
            <mxRectangle width="80" height="40" as="alternateBounds" />
          </mxGeometry>
        </mxCell>
        <mxCell id="MC8U4YQa0FiXzc1xEEIF-31" value="" style="shape=partialRectangle;html=1;whiteSpace=wrap;connectable=0;strokeColor=inherit;overflow=hidden;fillColor=none;top=0;left=0;bottom=0;right=0;pointerEvents=1;" vertex="1" visible="0" parent="MC8U4YQa0FiXzc1xEEIF-28">
          <mxGeometry x="160" width="80" height="40" as="geometry">
            <mxRectangle width="80" height="40" as="alternateBounds" />
          </mxGeometry>
        </mxCell>
        <mxCell id="MC8U4YQa0FiXzc1xEEIF-32" value="" style="shape=partialRectangle;html=1;whiteSpace=wrap;connectable=0;strokeColor=inherit;overflow=hidden;fillColor=none;top=0;left=0;bottom=0;right=0;pointerEvents=1;" vertex="1" visible="0" parent="MC8U4YQa0FiXzc1xEEIF-28">
          <mxGeometry x="240" width="80" height="40" as="geometry">
            <mxRectangle width="80" height="40" as="alternateBounds" />
          </mxGeometry>
        </mxCell>
        <mxCell id="MC8U4YQa0FiXzc1xEEIF-63" style="shape=partialRectangle;html=1;whiteSpace=wrap;connectable=0;strokeColor=inherit;overflow=hidden;fillColor=none;top=0;left=0;bottom=0;right=0;pointerEvents=1;" vertex="1" visible="0" parent="MC8U4YQa0FiXzc1xEEIF-28">
          <mxGeometry x="320" width="80" height="40" as="geometry">
            <mxRectangle width="80" height="40" as="alternateBounds" />
          </mxGeometry>
        </mxCell>
        <mxCell id="MC8U4YQa0FiXzc1xEEIF-33" value="" style="shape=tableRow;horizontal=0;startSize=0;swimlaneHead=0;swimlaneBody=0;strokeColor=inherit;top=0;left=0;bottom=0;right=0;collapsible=0;dropTarget=0;fillColor=none;points=[[0,0.5],[1,0.5]];portConstraint=eastwest;" vertex="1" parent="MC8U4YQa0FiXzc1xEEIF-27">
          <mxGeometry y="40" width="400" height="45" as="geometry" />
        </mxCell>
        <mxCell id="MC8U4YQa0FiXzc1xEEIF-34" value="&lt;div&gt;Node 1&lt;/div&gt;&lt;div&gt;Input&lt;/div&gt;" style="shape=partialRectangle;html=1;whiteSpace=wrap;connectable=0;strokeColor=inherit;overflow=hidden;fillColor=#f5f5f5;top=0;left=0;bottom=0;right=0;pointerEvents=1;fontSize=16;fontColor=#333333;" vertex="1" parent="MC8U4YQa0FiXzc1xEEIF-33">
          <mxGeometry width="80" height="45" as="geometry">
            <mxRectangle width="80" height="45" as="alternateBounds" />
          </mxGeometry>
        </mxCell>
        <mxCell id="MC8U4YQa0FiXzc1xEEIF-35" value="&lt;div&gt;Node 2&lt;/div&gt;&lt;div&gt;Input&lt;/div&gt;" style="shape=partialRectangle;html=1;whiteSpace=wrap;connectable=0;strokeColor=inherit;overflow=hidden;fillColor=#f5f5f5;top=0;left=0;bottom=0;right=0;pointerEvents=1;fontSize=16;fontColor=#333333;" vertex="1" parent="MC8U4YQa0FiXzc1xEEIF-33">
          <mxGeometry x="80" width="80" height="45" as="geometry">
            <mxRectangle width="80" height="45" as="alternateBounds" />
          </mxGeometry>
        </mxCell>
        <mxCell id="MC8U4YQa0FiXzc1xEEIF-36" value="&lt;div&gt;Node 3&lt;/div&gt;&lt;div&gt;Input&lt;/div&gt;" style="shape=partialRectangle;html=1;whiteSpace=wrap;connectable=0;strokeColor=inherit;overflow=hidden;fillColor=#f5f5f5;top=0;left=0;bottom=0;right=0;pointerEvents=1;fontSize=16;fontColor=#333333;" vertex="1" parent="MC8U4YQa0FiXzc1xEEIF-33">
          <mxGeometry x="160" width="80" height="45" as="geometry">
            <mxRectangle width="80" height="45" as="alternateBounds" />
          </mxGeometry>
        </mxCell>
        <mxCell id="MC8U4YQa0FiXzc1xEEIF-37" value="&lt;div&gt;Node 4&lt;/div&gt;&lt;div&gt;Hidden&lt;/div&gt;" style="shape=partialRectangle;html=1;whiteSpace=wrap;connectable=0;strokeColor=inherit;overflow=hidden;fillColor=#f5f5f5;top=0;left=0;bottom=0;right=0;pointerEvents=1;fontSize=16;fontColor=#333333;" vertex="1" parent="MC8U4YQa0FiXzc1xEEIF-33">
          <mxGeometry x="240" width="80" height="45" as="geometry">
            <mxRectangle width="80" height="45" as="alternateBounds" />
          </mxGeometry>
        </mxCell>
        <mxCell id="MC8U4YQa0FiXzc1xEEIF-64" value="&lt;div&gt;Node 5&lt;/div&gt;&lt;div&gt;Output&lt;/div&gt;" style="shape=partialRectangle;html=1;whiteSpace=wrap;connectable=0;strokeColor=inherit;overflow=hidden;fillColor=#f5f5f5;top=0;left=0;bottom=0;right=0;pointerEvents=1;fontSize=16;fontColor=#333333;" vertex="1" parent="MC8U4YQa0FiXzc1xEEIF-33">
          <mxGeometry x="320" width="80" height="45" as="geometry">
            <mxRectangle width="80" height="45" as="alternateBounds" />
          </mxGeometry>
        </mxCell>
        <mxCell id="MC8U4YQa0FiXzc1xEEIF-38" value="" style="shape=table;startSize=0;container=1;collapsible=0;childLayout=tableLayout;strokeWidth=2;swimlaneFillColor=none;" vertex="1" parent="1">
          <mxGeometry x="-900" y="-150" width="488" height="149" as="geometry" />
        </mxCell>
        <mxCell id="MC8U4YQa0FiXzc1xEEIF-39" value="" style="shape=tableRow;horizontal=0;startSize=0;swimlaneHead=0;swimlaneBody=0;strokeColor=inherit;top=0;left=0;bottom=0;right=0;collapsible=0;dropTarget=0;fillColor=none;points=[[0,0.5],[1,0.5]];portConstraint=eastwest;" vertex="1" parent="MC8U4YQa0FiXzc1xEEIF-38">
          <mxGeometry width="488" height="40" as="geometry" />
        </mxCell>
        <mxCell id="MC8U4YQa0FiXzc1xEEIF-40" value="Connection Gene" style="shape=partialRectangle;html=1;whiteSpace=wrap;connectable=0;strokeColor=inherit;overflow=hidden;fillColor=#f8cecc;top=0;left=0;bottom=0;right=0;pointerEvents=1;fontSize=16;rowspan=1;colspan=5;" vertex="1" parent="MC8U4YQa0FiXzc1xEEIF-39">
          <mxGeometry width="488" height="40" as="geometry">
            <mxRectangle width="98" height="40" as="alternateBounds" />
          </mxGeometry>
        </mxCell>
        <mxCell id="MC8U4YQa0FiXzc1xEEIF-41" value="" style="shape=partialRectangle;html=1;whiteSpace=wrap;connectable=0;strokeColor=inherit;overflow=hidden;fillColor=none;top=0;left=0;bottom=0;right=0;pointerEvents=1;" vertex="1" visible="0" parent="MC8U4YQa0FiXzc1xEEIF-39">
          <mxGeometry x="98" width="98" height="40" as="geometry">
            <mxRectangle width="98" height="40" as="alternateBounds" />
          </mxGeometry>
        </mxCell>
        <mxCell id="MC8U4YQa0FiXzc1xEEIF-42" value="" style="shape=partialRectangle;html=1;whiteSpace=wrap;connectable=0;strokeColor=inherit;overflow=hidden;fillColor=none;top=0;left=0;bottom=0;right=0;pointerEvents=1;" vertex="1" visible="0" parent="MC8U4YQa0FiXzc1xEEIF-39">
          <mxGeometry x="196" width="96" height="40" as="geometry">
            <mxRectangle width="96" height="40" as="alternateBounds" />
          </mxGeometry>
        </mxCell>
        <mxCell id="MC8U4YQa0FiXzc1xEEIF-43" value="" style="shape=partialRectangle;html=1;whiteSpace=wrap;connectable=0;strokeColor=inherit;overflow=hidden;fillColor=none;top=0;left=0;bottom=0;right=0;pointerEvents=1;" vertex="1" visible="0" parent="MC8U4YQa0FiXzc1xEEIF-39">
          <mxGeometry x="292" width="98" height="40" as="geometry">
            <mxRectangle width="98" height="40" as="alternateBounds" />
          </mxGeometry>
        </mxCell>
        <mxCell id="MC8U4YQa0FiXzc1xEEIF-49" style="shape=partialRectangle;html=1;whiteSpace=wrap;connectable=0;strokeColor=inherit;overflow=hidden;fillColor=none;top=0;left=0;bottom=0;right=0;pointerEvents=1;" vertex="1" visible="0" parent="MC8U4YQa0FiXzc1xEEIF-39">
          <mxGeometry x="390" width="98" height="40" as="geometry">
            <mxRectangle width="98" height="40" as="alternateBounds" />
          </mxGeometry>
        </mxCell>
        <mxCell id="MC8U4YQa0FiXzc1xEEIF-44" value="" style="shape=tableRow;horizontal=0;startSize=0;swimlaneHead=0;swimlaneBody=0;strokeColor=inherit;top=0;left=0;bottom=0;right=0;collapsible=0;dropTarget=0;fillColor=none;points=[[0,0.5],[1,0.5]];portConstraint=eastwest;" vertex="1" parent="MC8U4YQa0FiXzc1xEEIF-38">
          <mxGeometry y="40" width="488" height="109" as="geometry" />
        </mxCell>
        <mxCell id="MC8U4YQa0FiXzc1xEEIF-45" value="&lt;div&gt;In 1&lt;/div&gt;&lt;div&gt;Out 5&lt;/div&gt;&lt;div&gt;Weight -0.8&lt;/div&gt;&lt;div&gt;Enabled&lt;/div&gt;&lt;div&gt;Innov 1&lt;/div&gt;" style="shape=partialRectangle;html=1;whiteSpace=wrap;connectable=0;strokeColor=inherit;overflow=hidden;fillColor=#f5f5f5;top=0;left=0;bottom=0;right=0;pointerEvents=1;fontSize=16;fontColor=#333333;" vertex="1" parent="MC8U4YQa0FiXzc1xEEIF-44">
          <mxGeometry width="98" height="109" as="geometry">
            <mxRectangle width="98" height="109" as="alternateBounds" />
          </mxGeometry>
        </mxCell>
        <mxCell id="MC8U4YQa0FiXzc1xEEIF-46" value="&lt;div&gt;In 2&lt;/div&gt;&lt;div&gt;Out 4&lt;/div&gt;&lt;div&gt;Weight 1.2&lt;/div&gt;&lt;div&gt;Enabled&lt;/div&gt;&lt;div&gt;Innov 2&lt;/div&gt;" style="shape=partialRectangle;html=1;whiteSpace=wrap;connectable=0;strokeColor=inherit;overflow=hidden;fillColor=#f5f5f5;top=0;left=0;bottom=0;right=0;pointerEvents=1;fontSize=16;fontColor=#333333;" vertex="1" parent="MC8U4YQa0FiXzc1xEEIF-44">
          <mxGeometry x="98" width="98" height="109" as="geometry">
            <mxRectangle width="98" height="109" as="alternateBounds" />
          </mxGeometry>
        </mxCell>
        <mxCell id="MC8U4YQa0FiXzc1xEEIF-47" value="&lt;div&gt;In 3&lt;/div&gt;&lt;div&gt;Out 4&lt;/div&gt;&lt;div&gt;Weight 1.8&lt;/div&gt;&lt;div&gt;Enabled&lt;/div&gt;&lt;div&gt;Innov 3&lt;/div&gt;" style="shape=partialRectangle;html=1;whiteSpace=wrap;connectable=0;strokeColor=inherit;overflow=hidden;fillColor=#f5f5f5;top=0;left=0;bottom=0;right=0;pointerEvents=1;fontSize=16;fontColor=#333333;" vertex="1" parent="MC8U4YQa0FiXzc1xEEIF-44">
          <mxGeometry x="196" width="96" height="109" as="geometry">
            <mxRectangle width="96" height="109" as="alternateBounds" />
          </mxGeometry>
        </mxCell>
        <mxCell id="MC8U4YQa0FiXzc1xEEIF-48" value="&lt;div&gt;In 4&lt;/div&gt;&lt;div&gt;Out 5&lt;/div&gt;&lt;div&gt;Weight -1.4&lt;/div&gt;&lt;div&gt;Enabled&lt;/div&gt;&lt;div&gt;Innov 4&lt;/div&gt;" style="shape=partialRectangle;html=1;whiteSpace=wrap;connectable=0;strokeColor=inherit;overflow=hidden;fillColor=#f5f5f5;top=0;left=0;bottom=0;right=0;pointerEvents=1;fontSize=16;fontColor=#333333;" vertex="1" parent="MC8U4YQa0FiXzc1xEEIF-44">
          <mxGeometry x="292" width="98" height="109" as="geometry">
            <mxRectangle width="98" height="109" as="alternateBounds" />
          </mxGeometry>
        </mxCell>
        <mxCell id="MC8U4YQa0FiXzc1xEEIF-50" value="&lt;div&gt;In 3&lt;/div&gt;&lt;div&gt;Out 5&lt;/div&gt;&lt;div&gt;Weight 0&lt;/div&gt;&lt;div&gt;Disabled&lt;/div&gt;&lt;div&gt;Innov 5&lt;/div&gt;" style="shape=partialRectangle;html=1;whiteSpace=wrap;connectable=0;strokeColor=inherit;overflow=hidden;fillColor=#f5f5f5;top=0;left=0;bottom=0;right=0;pointerEvents=1;fontSize=16;fontColor=#333333;" vertex="1" parent="MC8U4YQa0FiXzc1xEEIF-44">
          <mxGeometry x="390" width="98" height="109" as="geometry">
            <mxRectangle width="98" height="109" as="alternateBounds" />
          </mxGeometry>
        </mxCell>
        <mxCell id="MC8U4YQa0FiXzc1xEEIF-51" value="" style="endArrow=classic;html=1;rounded=0;exitX=0.5;exitY=0;exitDx=0;exitDy=0;entryX=1;entryY=1;entryDx=0;entryDy=0;dashed=1;fillColor=#f5f5f5;strokeColor=#666666;dashPattern=8 8;" edge="1" parent="1" source="MC8U4YQa0FiXzc1xEEIF-11" target="MC8U4YQa0FiXzc1xEEIF-8">
          <mxGeometry width="50" height="50" relative="1" as="geometry">
            <mxPoint x="-100" y="-140" as="sourcePoint" />
            <mxPoint x="-50" y="-190" as="targetPoint" />
          </mxGeometry>
        </mxCell>
        <mxCell id="MC8U4YQa0FiXzc1xEEIF-55" value="Neural Network (Phenotype)" style="text;html=1;align=center;verticalAlign=middle;whiteSpace=wrap;rounded=0;fontSize=16;fontStyle=1" vertex="1" parent="1">
          <mxGeometry x="-260" y="-375" width="140" height="40" as="geometry" />
        </mxCell>
        <mxCell id="MC8U4YQa0FiXzc1xEEIF-56" value="" style="endArrow=classic;startArrow=classic;html=1;rounded=0;strokeWidth=3;" edge="1" parent="1">
          <mxGeometry width="50" height="50" relative="1" as="geometry">
            <mxPoint x="-380" y="-136.52999999999997" as="sourcePoint" />
            <mxPoint x="-270" y="-136" as="targetPoint" />
          </mxGeometry>
        </mxCell>
        <mxCell id="MC8U4YQa0FiXzc1xEEIF-59" value="1" style="ellipse;whiteSpace=wrap;html=1;fontSize=16;fillColor=#f8cecc;strokeColor=#b85450;" vertex="1" parent="1">
          <mxGeometry x="-240" y="-71" width="60" height="60" as="geometry" />
        </mxCell>
        <mxCell id="MC8U4YQa0FiXzc1xEEIF-60" value="" style="endArrow=classic;html=1;rounded=0;entryX=0.5;entryY=1;entryDx=0;entryDy=0;" edge="1" parent="1" target="MC8U4YQa0FiXzc1xEEIF-59">
          <mxGeometry width="50" height="50" relative="1" as="geometry">
            <mxPoint x="-210.53" y="40" as="sourcePoint" />
            <mxPoint x="-210.53" y="-11" as="targetPoint" />
          </mxGeometry>
        </mxCell>
        <mxCell id="MC8U4YQa0FiXzc1xEEIF-61" value="Input 1" style="text;html=1;align=center;verticalAlign=middle;whiteSpace=wrap;rounded=0;fontSize=16;" vertex="1" parent="1">
          <mxGeometry x="-240" y="40" width="60" height="30" as="geometry" />
        </mxCell>
        <mxCell id="MC8U4YQa0FiXzc1xEEIF-62" value="" style="endArrow=classic;html=1;rounded=0;entryX=0;entryY=1;entryDx=0;entryDy=0;exitX=0.5;exitY=0;exitDx=0;exitDy=0;" edge="1" parent="1" source="MC8U4YQa0FiXzc1xEEIF-59" target="MC8U4YQa0FiXzc1xEEIF-8">
          <mxGeometry width="50" height="50" relative="1" as="geometry">
            <mxPoint x="-88" y="-61" as="sourcePoint" />
            <mxPoint x="-49" y="-218" as="targetPoint" />
          </mxGeometry>
        </mxCell>
      </root>
    </mxGraphModel>
  </diagram>
</mxfile>
